<svg id="Laag_1" data-name="Laag 1" xmlns="http://www.w3.org/2000/svg" viewBox="0 0 300.78 147.19"><defs><style>.cls-1,.cls-2,.cls-3,.cls-4{fill:none;stroke-miterlimit:10;stroke-width:8px;}.cls-1{stroke:#52b0bf;}.cls-2{stroke:#a3cc83;}.cls-3{stroke:#e7bb03;}.cls-4{stroke:#f5a488;}.cls-5{fill:#43433d;}</style></defs><line class="cls-1" x1="300.78" y1="6.35" x2="187.67" y2="6.35"/><line class="cls-2" x1="300.78" y1="29.03" x2="177.95" y2="29.03"/><line class="cls-3" x1="300.78" y1="53.58" x2="169.55" y2="53.58"/><line class="cls-1" x1="300.78" y1="143.19" x2="187.67" y2="143.19"/><line class="cls-2" x1="300.78" y1="120.5" x2="177.95" y2="120.5"/><line class="cls-3" x1="300.78" y1="95.95" x2="169.55" y2="95.95"/><line class="cls-4" x1="300.78" y1="75.36" x2="161.6" y2="75.36"/><path class="cls-5" d="M215.88,381.55c10.26,70.71,12.34,88.33,13.71,105.17h.33c2-18.19,7.86-41.9,19.15-105.17h30.82c11.71,65,17.06,87.29,18.72,105.35h.32c1.62-15.59,2.62-30,14.08-105.35h33.4l-31.84,146H282.25c-7.76-42.11-16-76.15-18.68-97.76h-.32c-1.95,20-10.12,52.65-19.65,97.76H210.71l-30.26-146Z" transform="translate(-180.45 -381.55)"/></svg>